
General
Unique ID : 168348648403719580577546155723716462494 (0x7EA6C532C2870C1E037BA147C20E879E)
Complete name : THE WOMAN IN BLACK (2012) DVDScr [MKV AC3][RoB]PR3DATOR RG
Format : Matroska
Format version : Version 2
File size : 822 MiB
Duration : 1h 28mn
Overall bit rate : 1 302 Kbps
Writing application : Lavf51.12.1
Writing library : Lavf51.12.1

Video
ID : 1
Format : AVC
Format/Info : Advanced Video Codec
Format profile : Baseline@L2.1
Format settings, CABAC : No
Format settings, ReFrames : 5 frames
Format settings, GOP : M=1, N=12
Codec ID : V_MPEG4/ISO/AVC
Duration : 1h 28mn
Bit rate : 1 116 Kbps
Width : 704 pixels
Height : 288 pixels
Display aspect ratio : 2.40:1
Frame rate mode : Variable
Frame rate : 25.000 fps
Color space : YUV
Chroma subsampling : 4:2:0
Bit depth : 8 bits
Scan type : Progressive
Bits/(Pixel*Frame) : 0.220
Stream size : 705 MiB (86%)
Language : English
Default : Yes
Forced : No

Audio
ID : 2
Format : AC-3
Format/Info : Audio Coding 3
Mode extension : CM (complete main)
Codec ID : A_AC3
Duration : 1h 28mn
Bit rate mode : Constant
Bit rate : 160 Kbps
Channel(s) : 2 channels
Channel positions : Front: L R
Sampling rate : 44.1 KHz
Bit depth : 16 bits
Compression mode : Lossy
Stream size : 101 MiB (12%)
Language : English
Default : Yes
Forced : No
 
http://img839.imageshack.us/img839/3592/vlcsnap2012022122h13m01.png
 
http://img843.imageshack.us/img843/973/vlcsnap2012022122h13m08.png
 
http://img196.imageshack.us/img196/47/vlcsnap2012022122h13m16.png
 
http://img109.imageshack.us/img109/8183/vlcsnap2012022122h13m22.png
 
http://img35.imageshack.us/img35/7069/vlcsnap2012022122h13m35.png